<svg width="16" height="12" viewBox="0 0 16 12" fill="none" xmlns="http://www.w3.org/2000/svg">
<path fill-rule="evenodd" clip-rule="evenodd" d="M1.5463 5.89431C1.5463 5.48564 1.8776 5.15435 2.2863 5.15435L14.76 5.15435C15.1687 5.15435 15.5 5.48564 15.5 5.89431C15.5 6.30299 15.1687 6.63428 14.76 6.63428L2.2863 6.63428C1.8776 6.63428 1.5463 6.30298 1.5463 5.89431Z" fill="#01071B"/>
<path fill-rule="evenodd" clip-rule="evenodd" d="M1.02319 6.52325C0.734294 6.23428 0.734294 5.76576 1.02319 5.47679L5.50809 0.991917C5.79709 0.702917 6.26559 0.702917 6.55457 0.991917C6.84354 1.28092 6.84354 1.74942 6.55457 2.03838L2.59289 6.00002L6.55456 9.96166C6.84354 10.2506 6.84354 10.7191 6.55456 11.0081C6.26559 11.2971 5.79709 11.2971 5.50809 11.0081L1.02319 6.52325Z" fill="#01071B"/>
</svg>
