<svg width="16" height="12" viewBox="0 0 16 12" fill="none" xmlns="http://www.w3.org/2000/svg">
<g clip-path="url(#clip0_1_276)">
<path fill-rule="evenodd" clip-rule="evenodd" d="M14.4537 6.10569C14.4537 6.51436 14.1224 6.84565 13.7137 6.84565H1.24C0.831325 6.84565 0.500031 6.51436 0.500031 6.10569C0.500032 5.69701 0.831326 5.36572 1.24 5.36572H13.7137C14.1224 5.36572 14.4537 5.69702 14.4537 6.10569Z" fill="#01071B"/>
<path fill-rule="evenodd" clip-rule="evenodd" d="M14.9768 5.47675C15.2657 5.76572 15.2657 6.23424 14.9768 6.52321L10.4919 11.0081C10.2029 11.2971 9.73441 11.2971 9.44543 11.0081C9.15646 10.7191 9.15646 10.2506 9.44543 9.96162L13.4071 5.99998L9.44544 2.03834C9.15646 1.74937 9.15646 1.28085 9.44544 0.991877C9.73441 0.702903 10.2029 0.702903 10.4919 0.991878L14.9768 5.47675Z" fill="#01071B"/>
</g>
<defs>
<clipPath id="clip0_1_276">
<rect width="16" height="12" fill="white"/>
</clipPath>
</defs>
</svg>
