<svg width="21" height="21" viewBox="0 0 21 21" fill="none" xmlns="http://www.w3.org/2000/svg">
<g id="Icon" clip-path="url(#clip0_1_51)">
<path id="Vector" d="M20.5801 10.9897C20.5801 5.43225 16.1026 0.927246 10.5801 0.927246C5.05514 0.928496 0.577637 5.43225 0.577637 10.991C0.577637 16.0122 4.23514 20.1747 9.01514 20.9297V13.8985H6.47764V10.991H9.01764V8.77225C9.01764 6.251 10.5114 4.8585 12.7951 4.8585C13.8901 4.8585 15.0339 5.05475 15.0339 5.05475V7.52975H13.7726C12.5314 7.52975 12.1439 8.306 12.1439 9.10225V10.9897H14.9164L14.4739 13.8972H12.1426V20.9285C16.9226 20.1735 20.5801 16.011 20.5801 10.9897Z" fill="white"/>
</g>
<defs>
<clipPath id="clip0_1_51">
<rect width="20" height="20" fill="white" transform="translate(0.580139 0.928711)"/>
</clipPath>
</defs>
</svg>
