<svg width="21" height="21" viewBox="0 0 21 21" fill="none" xmlns="http://www.w3.org/2000/svg">
<g id="Icon" clip-path="url(#clip0_1_47)">
<path id="Vector" d="M10.5801 0.928711C7.86639 0.928711 7.52514 0.941211 6.45889 0.988711C5.39264 1.03871 4.66639 1.20621 4.03014 1.45371C3.36276 1.70473 2.75825 2.09849 2.25889 2.60746C1.75023 3.10708 1.35652 3.71151 1.10514 4.37871C0.857639 5.01371 0.688889 5.74121 0.640139 6.80371C0.592639 7.87246 0.580139 8.21246 0.580139 10.93C0.580139 13.645 0.592639 13.985 0.640139 15.0512C0.690139 16.1162 0.857639 16.8425 1.10514 17.4787C1.36139 18.1362 1.70264 18.6937 2.25889 19.25C2.81389 19.8062 3.37139 20.1487 4.02889 20.4037C4.66639 20.6512 5.39139 20.82 6.45639 20.8687C7.52389 20.9162 7.86389 20.9287 10.5801 20.9287C13.2964 20.9287 13.6351 20.9162 14.7026 20.8687C15.7664 20.8187 16.4951 20.6512 17.1314 20.4037C17.7983 20.1526 18.4024 19.7588 18.9014 19.25C19.4576 18.6937 19.7989 18.1362 20.0551 17.4787C20.3014 16.8425 20.4701 16.1162 20.5201 15.0512C20.5676 13.985 20.5801 13.645 20.5801 10.9287C20.5801 8.21246 20.5676 7.87246 20.5201 6.80496C20.4701 5.74121 20.3014 5.01371 20.0551 4.37871C19.8038 3.71149 19.4101 3.10706 18.9014 2.60746C18.4022 2.09831 17.7976 1.70452 17.1301 1.45371C16.4926 1.20621 15.7651 1.03746 14.7014 0.988711C13.6339 0.941211 13.2951 0.928711 10.5776 0.928711H10.5814H10.5801ZM9.68389 2.73121H10.5814C13.2514 2.73121 13.5676 2.73996 14.6214 2.78871C15.5964 2.83246 16.1264 2.99621 16.4789 3.13246C16.9451 3.31371 17.2789 3.53121 17.6289 3.88121C17.9789 4.23121 18.1951 4.56371 18.3764 5.03121C18.5139 5.38246 18.6764 5.91246 18.7201 6.88746C18.7689 7.94121 18.7789 8.25746 18.7789 10.9262C18.7789 13.595 18.7689 13.9125 18.7201 14.9662C18.6764 15.9412 18.5126 16.47 18.3764 16.8225C18.2161 17.2567 17.9602 17.6493 17.6276 17.9712C17.2776 18.3212 16.9451 18.5375 16.4776 18.7187C16.1276 18.8562 15.5976 19.0187 14.6214 19.0637C13.5676 19.1112 13.2514 19.1225 10.5814 19.1225C7.91139 19.1225 7.59389 19.1112 6.54014 19.0637C5.56514 19.0187 5.03639 18.8562 4.68389 18.7187C4.24951 18.5586 3.85655 18.3032 3.53389 17.9712C3.20108 17.6488 2.94479 17.2558 2.78389 16.8212C2.64764 16.47 2.48389 15.94 2.44014 14.965C2.39264 13.9112 2.38264 13.595 2.38264 10.9237C2.38264 8.25371 2.39264 7.93871 2.44014 6.88496C2.48514 5.90996 2.64764 5.37996 2.78514 5.02746C2.96639 4.56121 3.18389 4.22746 3.53389 3.87746C3.88389 3.52746 4.21639 3.31121 4.68389 3.12996C5.03639 2.99246 5.56514 2.82996 6.54014 2.78496C7.46264 2.74246 7.82014 2.72996 9.68389 2.72871V2.73121ZM15.9189 4.39121C15.7613 4.39121 15.6053 4.42225 15.4597 4.48256C15.3141 4.54286 15.1818 4.63125 15.0704 4.74268C14.9589 4.85411 14.8705 4.9864 14.8102 5.13199C14.7499 5.27758 14.7189 5.43362 14.7189 5.59121C14.7189 5.7488 14.7499 5.90484 14.8102 6.05043C14.8705 6.19602 14.9589 6.32831 15.0704 6.43974C15.1818 6.55117 15.3141 6.63956 15.4597 6.69987C15.6053 6.76017 15.7613 6.79121 15.9189 6.79121C16.2371 6.79121 16.5424 6.66478 16.7674 6.43974C16.9925 6.2147 17.1189 5.90947 17.1189 5.59121C17.1189 5.27295 16.9925 4.96773 16.7674 4.74268C16.5424 4.51764 16.2371 4.39121 15.9189 4.39121ZM10.5814 5.79371C9.90023 5.78308 9.22376 5.90807 8.59136 6.16139C7.95897 6.41471 7.38328 6.7913 6.89783 7.26924C6.41237 7.74718 6.02684 8.31692 5.76369 8.94529C5.50054 9.57365 5.36501 10.2481 5.36501 10.9293C5.36501 11.6106 5.50054 12.285 5.76369 12.9134C6.02684 13.5418 6.41237 14.1115 6.89783 14.5894C7.38328 15.0674 7.95897 15.444 8.59136 15.6973C9.22376 15.9506 9.90023 16.0756 10.5814 16.065C11.9296 16.0439 13.2154 15.4936 14.1614 14.5328C15.1073 13.5719 15.6375 12.2777 15.6375 10.9293C15.6375 9.581 15.1073 8.28673 14.1614 7.3259C13.2154 6.36507 11.9296 5.81474 10.5814 5.79371ZM10.5814 7.59496C11.4656 7.59496 12.3135 7.94619 12.9387 8.57139C13.5639 9.19659 13.9151 10.0445 13.9151 10.9287C13.9151 11.8129 13.5639 12.6608 12.9387 13.286C12.3135 13.9112 11.4656 14.2625 10.5814 14.2625C9.69722 14.2625 8.84927 13.9112 8.22407 13.286C7.59887 12.6608 7.24764 11.8129 7.24764 10.9287C7.24764 10.0445 7.59887 9.19659 8.22407 8.57139C8.84927 7.94619 9.69722 7.59496 10.5814 7.59496Z" fill="white"/>
</g>
<defs>
<clipPath id="clip0_1_47">
<rect width="20" height="20" fill="white" transform="translate(0.580139 0.928711)"/>
</clipPath>
</defs>
</svg>
