<svg width="21" height="21" viewBox="0 0 21 21" fill="none" xmlns="http://www.w3.org/2000/svg">
<g id="Icon" clip-path="url(#clip0_1_49)">
<path id="Vector" d="M0.580139 2.36121C0.580139 1.56996 1.23764 0.928711 2.04889 0.928711H19.1114C19.9226 0.928711 20.5801 1.56996 20.5801 2.36121V19.4962C20.5801 20.2875 19.9226 20.9287 19.1114 20.9287H2.04889C1.23764 20.9287 0.580139 20.2875 0.580139 19.4962V2.36121ZM6.75889 17.6712V8.63996H3.75764V17.6712H6.75889ZM5.25889 7.40621C6.30514 7.40621 6.95639 6.71371 6.95639 5.84621C6.93764 4.95996 6.30639 4.28621 5.27889 4.28621C4.25139 4.28621 3.58014 4.96121 3.58014 5.84621C3.58014 6.71371 4.23139 7.40621 5.23889 7.40621H5.25889ZM11.3939 17.6712V12.6275C11.3939 12.3575 11.4139 12.0875 11.4939 11.895C11.7101 11.3562 12.2039 10.7975 13.0339 10.7975C14.1201 10.7975 14.5539 11.625 14.5539 12.84V17.6712H17.5551V12.4912C17.5551 9.71621 16.0751 8.42621 14.1001 8.42621C12.5076 8.42621 11.7939 9.30121 11.3939 9.91746V9.94871H11.3739C11.3805 9.93828 11.3872 9.92786 11.3939 9.91746V8.63996H8.39389C8.43139 9.48746 8.39389 17.6712 8.39389 17.6712H11.3939Z" fill="white"/>
</g>
<defs>
<clipPath id="clip0_1_49">
<rect width="20" height="20" fill="white" transform="translate(0.580139 0.928711)"/>
</clipPath>
</defs>
</svg>
