<svg width="21" height="21" viewBox="0 0 21 21" fill="none" xmlns="http://www.w3.org/2000/svg">
<g id="Icon" clip-path="url(#clip0_1_45)">
<path id="Vector" d="M10.6439 3.42725H10.7551C11.7826 3.431 16.9889 3.4685 18.3926 3.846C18.817 3.96121 19.2037 4.18577 19.5141 4.49726C19.8245 4.80874 20.0477 5.19623 20.1614 5.621C20.2876 6.096 20.3764 6.72475 20.4364 7.3735L20.4489 7.5035L20.4764 7.8285L20.4864 7.9585C20.5676 9.101 20.5776 10.171 20.5789 10.4047V10.4985C20.5776 10.741 20.5664 11.8835 20.4764 13.0735L20.4664 13.2047L20.4551 13.3347C20.3926 14.0497 20.3001 14.7597 20.1614 15.2822C20.048 15.7072 19.8249 16.0949 19.5145 16.4064C19.2041 16.7179 18.8172 16.9424 18.3926 17.0572C16.9426 17.4472 11.4314 17.4747 10.6676 17.476H10.4901C10.1039 17.476 8.50639 17.4685 6.83139 17.411L6.61889 17.4035L6.51014 17.3985L6.29639 17.3897L6.08264 17.381C4.69514 17.3197 3.37389 17.221 2.76514 17.056C2.34075 16.9412 1.95397 16.717 1.64354 16.4057C1.33312 16.0944 1.10995 15.707 0.996389 15.2822C0.857639 14.761 0.765139 14.0497 0.702639 13.3347L0.692639 13.2035L0.682639 13.0735C0.620949 12.2265 0.586764 11.3777 0.580139 10.5285L0.580139 10.3747C0.582639 10.106 0.592639 9.17725 0.660139 8.15225L0.668889 8.0235L0.672639 7.9585L0.682639 7.8285L0.710139 7.5035L0.722639 7.3735C0.782639 6.72475 0.871389 6.09475 0.997639 5.621C1.11101 5.19606 1.33409 4.80838 1.64453 4.49685C1.95497 4.18531 2.34185 3.96086 2.76639 3.846C3.37514 3.6835 4.69639 3.5835 6.08389 3.521L6.29639 3.51225L6.51139 3.50475L6.61889 3.501L6.83264 3.49225C8.02227 3.45396 9.2124 3.43271 10.4026 3.4285H10.6439V3.42725ZM8.58014 7.43975V13.4622L13.7764 10.4522L8.58014 7.43975Z" fill="white"/>
</g>
<defs>
<clipPath id="clip0_1_45">
<rect width="20" height="20" fill="white" transform="translate(0.580139 0.928711)"/>
</clipPath>
</defs>
</svg>
