<svg width="179" height="42" viewBox="0 0 179 42" fill="none" xmlns="http://www.w3.org/2000/svg">
<g id="Icon" clip-path="url(#clip0_1_20)">
<path id="Vector" d="M9.68239 3.3374L9.6446 3.37518L2.18515 10.9677L2.14734 11.0085C0.766651 12.439 -0.00340481 14.3502 2.37707e-05 16.338V25.8298C-0.0049299 27.8178 0.764527 29.7297 2.14537 31.1604L2.18316 31.2001L9.67842 38.8315C10.3626 39.5241 11.1775 40.074 12.0759 40.4495C12.9743 40.8251 13.9382 41.0186 14.912 41.019H32.1801V33.3259H7.66835V8.80613H32.1801V1.1499H14.916C13.9423 1.15068 12.9784 1.3444 12.0801 1.71987C11.1818 2.09534 10.3668 2.64511 9.68239 3.3374Z" fill="white"/>
<path id="Vector_2" d="M62.3457 3.3374L62.3834 3.37518L69.8429 10.9677L69.8797 11.0085C71.2615 12.4384 72.0322 14.3499 72.028 16.338V25.8298C72.0326 27.8179 71.2628 29.7298 69.8817 31.1604L69.8449 31.2001L62.3497 38.8315C61.6653 39.5241 60.8504 40.074 59.9521 40.4495C59.0537 40.8251 58.0898 41.0186 57.1161 41.019H39.848V33.3259H64.3597V8.80613H39.848V1.1499H57.1121C58.0858 1.15073 59.0495 1.34448 59.9479 1.71995C60.8462 2.09542 61.6612 2.64515 62.3457 3.3374Z" fill="white"/>
<path id="Vector_3" d="M87.2041 18.8586C85.3742 18.8586 83.7686 18.4357 82.3875 17.5901C81.0237 16.7444 79.9792 15.6139 79.2541 14.1987C78.529 12.7662 78.1664 11.2128 78.1664 9.53869C78.1664 7.86456 78.529 6.31986 79.2541 4.90461C79.9792 3.4721 81.0237 2.333 82.3875 1.48729C83.7686 0.641599 85.3742 0.21875 87.2041 0.21875C89.3277 0.21875 91.1317 0.779672 92.6164 1.90152C94.1011 3.02336 95.1283 4.49039 95.698 6.3026L92.487 7.10515C92.1071 5.93153 91.4597 4.9909 90.5448 4.28328C89.647 3.57565 88.5335 3.22184 87.2041 3.22184C86.013 3.22184 84.9857 3.50662 84.1226 4.07617C83.2593 4.64572 82.6033 5.41375 82.1544 6.38026C81.7229 7.34678 81.5071 8.39959 81.5071 9.53869C81.5071 10.6778 81.7229 11.7306 82.1544 12.6971C82.6033 13.6637 83.2593 14.4316 84.1226 15.0012C84.9857 15.5708 86.013 15.8556 87.2041 15.8556C88.5335 15.8556 89.647 15.5017 90.5448 14.7941C91.4597 14.0865 92.1071 13.1458 92.487 11.9722L95.698 12.7747C95.1283 14.587 94.1011 16.054 92.6164 17.1758C91.1317 18.2977 89.3277 18.8586 87.2041 18.8586Z" fill="white"/>
<path id="Vector_4" d="M96.8398 6.71682C96.7708 5.40512 97.0298 4.25739 97.6168 3.27362C98.2037 2.27259 99.0065 1.51319 100.025 0.995413C101.061 0.477637 102.183 0.21875 103.392 0.21875C104.582 0.21875 105.653 0.460378 106.603 0.943634C107.57 1.42689 108.329 2.10863 108.882 2.98885C109.434 3.8518 109.71 4.83558 109.71 5.94015C109.71 7.25185 109.331 8.33918 108.571 9.20213C107.828 10.0651 106.749 10.9367 105.333 11.8169L103.133 13.189C101.941 13.9311 101.095 14.7337 100.595 15.5967H109.788V18.5998H96.5809C96.5119 16.9429 96.8226 15.5363 97.5132 14.3799C98.221 13.2063 99.4036 12.0931 101.061 11.0402L103.936 9.20213C104.729 8.6671 105.333 8.16659 105.749 7.70059C106.163 7.21734 106.37 6.64778 106.37 5.99194C106.37 5.1635 106.093 4.49902 105.54 3.9985C105.006 3.48073 104.29 3.22184 103.392 3.22184C102.39 3.22184 101.57 3.55839 100.931 4.2315C100.31 4.88735 100.008 5.80209 100.025 6.97571L96.8398 6.71682Z" fill="white"/>
<path id="Vector_5" d="M91.3485 21.6455V24.6486H82.9842V30.0076H90.5717V32.8554H82.9842V39.7676H79.6437V21.6455H91.3485Z" fill="white"/>
<path id="Vector_6" d="M96.4395 26.8233V39.7676H93.0989V26.8233H96.4395ZM92.7364 22.4222C92.7364 21.8699 92.935 21.3953 93.3321 20.9983C93.7292 20.6013 94.2125 20.4028 94.7822 20.4028C95.3347 20.4028 95.8094 20.6013 96.2065 20.9983C96.6036 21.3953 96.8021 21.8699 96.8021 22.4222C96.8021 22.9918 96.6036 23.475 96.2065 23.872C95.8094 24.2689 95.3347 24.4674 94.7822 24.4674C94.2125 24.4674 93.7292 24.2689 93.3321 23.872C92.935 23.475 92.7364 22.9918 92.7364 22.4222Z" fill="white"/>
<path id="Vector_7" d="M102.563 29.0239C102.961 28.2471 103.496 27.6431 104.169 27.2116C104.86 26.7802 105.671 26.5645 106.604 26.5645C107.916 26.5645 108.977 27.0217 109.789 27.9365C110.617 28.834 111.032 30.0853 111.032 31.6904V39.7676H107.691V32.5188C107.691 31.5696 107.484 30.8447 107.07 30.3442C106.672 29.8264 106.077 29.5675 105.282 29.5675C104.454 29.5675 103.79 29.8609 103.289 30.4477C102.805 31.0345 102.563 31.8026 102.563 32.7518V39.7676H99.223V26.8233H102.563V29.0239Z" fill="white"/>
<path id="Vector_8" d="M117.247 40.0265C115.935 40.0265 114.857 39.6813 114.011 38.991C113.181 38.2833 112.767 37.3514 112.767 36.195C112.767 35.056 113.208 34.1585 114.088 33.5026C114.969 32.8467 116.151 32.4066 117.636 32.1823L119.345 31.9233C119.881 31.837 120.26 31.7335 120.485 31.6127C120.709 31.4919 120.821 31.2676 120.821 30.9396C120.821 30.4391 120.614 30.0421 120.2 29.7487C119.802 29.4381 119.293 29.2828 118.671 29.2828C117.981 29.2828 117.411 29.4553 116.963 29.8005C116.514 30.1457 116.264 30.6462 116.212 31.302L113.026 31.0432C113.148 29.697 113.717 28.6182 114.735 27.807C115.772 26.9786 117.067 26.5645 118.619 26.5645C119.656 26.5645 120.588 26.7543 121.417 27.1339C122.263 27.5137 122.927 28.0832 123.411 28.8426C123.912 29.602 124.162 30.5167 124.162 31.5868V38.1885C124.162 38.7753 124.196 39.3016 124.266 39.7676H121.391C121.339 39.4397 121.313 38.9479 121.313 38.292V38.2402C120.485 39.4311 119.13 40.0265 117.247 40.0265ZM116.108 35.9879C116.108 36.4712 116.298 36.8595 116.678 37.1529C117.075 37.4291 117.584 37.5671 118.205 37.5671C118.983 37.5671 119.612 37.3427 120.096 36.894C120.579 36.4453 120.821 35.8153 120.821 35.0041V34.0203L120.251 34.1239L118.335 34.4346C117.61 34.5554 117.057 34.728 116.678 34.9523C116.298 35.1595 116.108 35.5046 116.108 35.9879Z" fill="white"/>
<path id="Vector_9" d="M130.067 29.0239C130.464 28.2471 131 27.6431 131.673 27.2116C132.363 26.7802 133.175 26.5645 134.106 26.5645C135.418 26.5645 136.481 27.0217 137.292 27.9365C138.12 28.834 138.535 30.0853 138.535 31.6904V39.7676H135.194V32.5188C135.194 31.5696 134.987 30.8447 134.573 30.3442C134.176 29.8264 133.58 29.5675 132.786 29.5675C131.958 29.5675 131.292 29.8609 130.792 30.4477C130.309 31.0345 130.067 31.8026 130.067 32.7518V39.7676H126.727V26.8233H130.067V29.0239Z" fill="white"/>
<path id="Vector_10" d="M140.219 33.2954C140.219 32.0701 140.486 30.9482 141.022 29.9299C141.574 28.8943 142.342 28.0746 143.327 27.4705C144.328 26.8665 145.475 26.5645 146.771 26.5645C148.428 26.5645 149.818 27.0391 150.94 27.9883C152.08 28.9376 152.796 30.1543 153.09 31.6385L149.775 31.9492C149.568 31.2244 149.205 30.6462 148.687 30.2147C148.186 29.7833 147.548 29.5675 146.771 29.5675C145.769 29.5675 144.984 29.9299 144.414 30.6549C143.844 31.3624 143.559 32.2427 143.559 33.2954C143.559 34.3483 143.844 35.2371 144.414 35.962C144.984 36.6696 145.769 37.0234 146.771 37.0234C147.548 37.0234 148.186 36.8077 148.687 36.3762C149.205 35.9448 149.568 35.3665 149.775 34.6417L153.09 34.9523C152.796 36.4366 152.08 37.6534 150.94 38.6027C149.818 39.5519 148.428 40.0265 146.771 40.0265C145.475 40.0265 144.328 39.7245 143.327 39.1205C142.342 38.5164 141.574 37.7052 141.022 36.6869C140.486 35.6513 140.219 34.5209 140.219 33.2954Z" fill="white"/>
<path id="Vector_11" d="M158.205 26.8233V39.7676H154.865V26.8233H158.205ZM154.503 22.4222C154.503 21.8699 154.701 21.3953 155.098 20.9983C155.496 20.6013 155.978 20.4028 156.549 20.4028C157.101 20.4028 157.575 20.6013 157.973 20.9983C158.37 21.3953 158.568 21.8699 158.568 22.4222C158.568 22.9918 158.37 23.475 157.973 23.872C157.575 24.2689 157.101 24.4674 156.549 24.4674C155.978 24.4674 155.496 24.2689 155.098 23.872C154.701 23.475 154.503 22.9918 154.503 22.4222Z" fill="white"/>
<path id="Vector_12" d="M164.718 40.0265C163.406 40.0265 162.326 39.6813 161.481 38.991C160.652 38.2833 160.238 37.3514 160.238 36.195C160.238 35.056 160.679 34.1585 161.559 33.5026C162.439 32.8467 163.622 32.4066 165.107 32.1823L166.816 31.9233C167.35 31.837 167.731 31.7335 167.955 31.6127C168.18 31.4919 168.292 31.2676 168.292 30.9396C168.292 30.4391 168.085 30.0421 167.67 29.7487C167.273 29.4381 166.764 29.2828 166.142 29.2828C165.452 29.2828 164.882 29.4553 164.433 29.8005C163.984 30.1457 163.734 30.6462 163.682 31.302L160.497 31.0432C160.617 29.697 161.188 28.6182 162.206 27.807C163.242 26.9786 164.536 26.5645 166.09 26.5645C167.126 26.5645 168.058 26.7543 168.887 27.1339C169.733 27.5137 170.398 28.0832 170.882 28.8426C171.381 29.602 171.632 30.5167 171.632 31.5868V38.1885C171.632 38.7753 171.667 39.3016 171.736 39.7676H168.861C168.809 39.4397 168.784 38.9479 168.784 38.292V38.2402C167.955 39.4311 166.599 40.0265 164.718 40.0265ZM163.578 35.9879C163.578 36.4712 163.768 36.8595 164.149 37.1529C164.546 37.4291 165.055 37.5671 165.676 37.5671C166.453 37.5671 167.083 37.3427 167.567 36.894C168.05 36.4453 168.292 35.8153 168.292 35.0041V34.0203L167.722 34.1239L165.806 34.4346C165.08 34.5554 164.528 34.728 164.149 34.9523C163.768 35.1595 163.578 35.5046 163.578 35.9879Z" fill="white"/>
<path id="Vector_13" d="M177.538 21.6455V39.7676H174.196V21.6455H177.538Z" fill="white"/>
</g>
<defs>
<clipPath id="clip0_1_20">
<rect width="178.55" height="40.8" fill="white" transform="translate(0 0.21875)"/>
</clipPath>
</defs>
</svg>
