<svg width="179" height="41" viewBox="0 0 179 41" fill="none" xmlns="http://www.w3.org/2000/svg">
<rect width="179" height="41" fill="#F5F5F5"/>
<g id="Desktop - Light Mode">
<path d="M-240 -315C-240 -316.105 -239.105 -317 -238 -317H1583C1584.1 -317 1585 -316.105 1585 -315V4932.92C1585 4934.02 1584.1 4934.92 1583 4934.92H-238C-239.105 4934.92 -240 4934.02 -240 4932.92V-315Z" fill="#404040"/>
<path d="M-238 -316H1583V-318H-238V-316ZM1584 -315V4932.92H1586V-315H1584ZM1583 4933.92H-238V4935.92H1583V4933.92ZM-239 4932.92V-315H-241V4932.92H-239ZM-238 4933.92C-238.552 4933.92 -239 4933.47 -239 4932.92H-241C-241 4934.58 -239.657 4935.92 -238 4935.92V4933.92ZM1584 4932.92C1584 4933.47 1583.55 4933.92 1583 4933.92V4935.92C1584.66 4935.92 1586 4934.58 1586 4932.92H1584ZM1583 -316C1583.55 -316 1584 -315.552 1584 -315H1586C1586 -316.657 1584.66 -318 1583 -318V-316ZM-238 -318C-239.657 -318 -241 -316.657 -241 -315H-239C-239 -315.552 -238.552 -316 -238 -316V-318Z" fill="black" fill-opacity="0.1"/>
<g id="Screen">
<rect width="1425" height="4753.92" transform="translate(-40 -19)" fill="#FFFBF7"/>
<g id="Body" clip-path="url(#clip0_0_1)">
<rect width="1425" height="4753.92" transform="translate(-40 -19)" fill="#FFFBF7"/>
<g id="Div [__next]">
<g id="Div [sc-efbf1366-0]">
<g id="Nav [sc-1eb90e3e-1]">
<rect width="1425" height="80" transform="translate(-40 -19)" fill="#FFFBF7"/>
<g id="Icon" clip-path="url(#clip1_0_1)">
<path id="Vector" d="M9.68239 3.32196L9.6446 3.35974L2.18515 10.9523L2.14734 10.9931C0.766651 12.4235 -0.00340481 14.3348 2.37707e-05 16.3226V25.8144C-0.0049299 27.8024 0.764527 29.7143 2.14537 31.1449L2.18316 31.1847L9.67842 38.816C10.3626 39.5086 11.1775 40.0586 12.0759 40.4341C12.9743 40.8096 13.9382 41.0031 14.912 41.0035H32.1801V33.3105H7.66835V8.79069H32.1801V1.13446H14.916C13.9423 1.13524 12.9784 1.32896 12.0801 1.70443C11.1818 2.0799 10.3668 2.62967 9.68239 3.32196Z" fill="black"/>
<path id="Vector_2" d="M62.3457 3.32196L62.3834 3.35974L69.8429 10.9523L69.8797 10.9931C71.2615 12.4229 72.0322 14.3345 72.028 16.3226V25.8144C72.0326 27.8025 71.2628 29.7144 69.8817 31.1449L69.8449 31.1847L62.3497 38.816C61.6653 39.5086 60.8504 40.0586 59.9521 40.4341C59.0537 40.8096 58.0898 41.0031 57.1161 41.0035H39.848V33.3105H64.3597V8.79069H39.848V1.13446H57.1121C58.0858 1.13529 59.0495 1.32904 59.9479 1.70451C60.8462 2.07997 61.6612 2.62971 62.3457 3.32196Z" fill="black"/>
<path id="Vector_3" d="M87.2041 18.843C85.3742 18.843 83.7686 18.4201 82.3875 17.5744C81.0237 16.7288 79.9792 15.5983 79.2541 14.183C78.529 12.7506 78.1664 11.1972 78.1664 9.52307C78.1664 7.84893 78.529 6.30423 79.2541 4.88898C79.9792 3.45648 81.0237 2.31737 82.3875 1.47167C83.7686 0.625974 85.3742 0.203125 87.2041 0.203125C89.3277 0.203125 91.1317 0.764047 92.6164 1.88589C94.1011 3.00774 95.1283 4.47476 95.698 6.28698L92.487 7.08952C92.1071 5.9159 91.4597 4.97528 90.5448 4.26765C89.647 3.56003 88.5335 3.20622 87.2041 3.20622C86.013 3.20622 84.9857 3.49099 84.1226 4.06054C83.2593 4.6301 82.6033 5.39813 82.1544 6.36464C81.7229 7.33115 81.5071 8.38396 81.5071 9.52307C81.5071 10.6622 81.7229 11.7149 82.1544 12.6815C82.6033 13.6481 83.2593 14.416 84.1226 14.9856C84.9857 15.5551 86.013 15.8399 87.2041 15.8399C88.5335 15.8399 89.647 15.4861 90.5448 14.7785C91.4597 14.0708 92.1071 13.1302 92.487 11.9566L95.698 12.7591C95.1283 14.5714 94.1011 16.0384 92.6164 17.1602C91.1317 18.2821 89.3277 18.843 87.2041 18.843Z" fill="black"/>
<path id="Vector_4" d="M96.8398 6.7012C96.7708 5.3895 97.0298 4.24176 97.6168 3.25799C98.2037 2.25697 99.0065 1.49757 100.025 0.979788C101.061 0.462012 102.183 0.203125 103.392 0.203125C104.582 0.203125 105.653 0.444753 106.603 0.928009C107.57 1.41126 108.329 2.093 108.882 2.97322C109.434 3.83617 109.71 4.81995 109.71 5.92453C109.71 7.23623 109.331 8.32356 108.571 9.18651C107.828 10.0495 106.749 10.9211 105.333 11.8012L103.133 13.1733C101.941 13.9155 101.095 14.718 100.595 15.5811H109.788V18.5841H96.5809C96.5119 16.9272 96.8226 15.5207 97.5132 14.3643C98.221 13.1907 99.4036 12.0775 101.061 11.0246L103.936 9.18651C104.729 8.65148 105.333 8.15097 105.749 7.68497C106.163 7.20171 106.37 6.63215 106.37 5.97631C106.37 5.14787 106.093 4.48339 105.54 3.98288C105.006 3.46511 104.29 3.20622 103.392 3.20622C102.39 3.20622 101.57 3.54277 100.931 4.21588C100.31 4.87173 100.008 5.78646 100.025 6.96008L96.8398 6.7012Z" fill="black"/>
<path id="Vector_5" d="M91.3485 21.6298V24.6328H82.9842V29.9918H90.5717V32.8397H82.9842V39.7519H79.6437V21.6298H91.3485Z" fill="black"/>
<path id="Vector_6" d="M96.4395 26.8076V39.7519H93.0989V26.8076H96.4395ZM92.7364 22.4065C92.7364 21.8542 92.935 21.3795 93.3321 20.9826C93.7292 20.5856 94.2125 20.3871 94.7822 20.3871C95.3347 20.3871 95.8094 20.5856 96.2065 20.9826C96.6036 21.3795 96.8021 21.8542 96.8021 22.4065C96.8021 22.976 96.6036 23.4592 96.2065 23.8562C95.8094 24.2532 95.3347 24.4517 94.7822 24.4517C94.2125 24.4517 93.7292 24.2532 93.3321 23.8562C92.935 23.4592 92.7364 22.976 92.7364 22.4065Z" fill="black"/>
<path id="Vector_7" d="M102.563 29.0081C102.961 28.2314 103.496 27.6274 104.169 27.1959C104.86 26.7644 105.671 26.5487 106.604 26.5487C107.916 26.5487 108.977 27.006 109.789 27.9207C110.617 28.8182 111.032 30.0695 111.032 31.6746V39.7519H107.691V32.5031C107.691 31.5538 107.484 30.8289 107.07 30.3284C106.672 29.8107 106.077 29.5518 105.282 29.5518C104.454 29.5518 103.79 29.8451 103.289 30.4319C102.805 31.0188 102.563 31.7868 102.563 32.736V39.7519H99.223V26.8076H102.563V29.0081Z" fill="black"/>
<path id="Vector_8" d="M117.247 40.0108C115.935 40.0108 114.857 39.6656 114.011 38.9753C113.181 38.2676 112.767 37.3356 112.767 36.1792C112.767 35.0402 113.208 34.1427 114.088 33.4868C114.969 32.831 116.151 32.3909 117.636 32.1666L119.345 31.9076C119.881 31.8213 120.26 31.7178 120.485 31.597C120.709 31.4761 120.821 31.2518 120.821 30.9239C120.821 30.4234 120.614 30.0264 120.2 29.7329C119.802 29.4224 119.293 29.267 118.671 29.267C117.981 29.267 117.411 29.4396 116.963 29.7848C116.514 30.1299 116.264 30.6304 116.212 31.2863L113.026 31.0274C113.148 29.6812 113.717 28.6025 114.735 27.7913C115.772 26.9628 117.067 26.5487 118.619 26.5487C119.656 26.5487 120.588 26.7385 121.417 27.1182C122.263 27.4979 122.927 28.0675 123.411 28.8269C123.912 29.5863 124.162 30.501 124.162 31.5711V38.1727C124.162 38.7595 124.196 39.2859 124.266 39.7519H121.391C121.339 39.424 121.313 38.9321 121.313 38.2763V38.2244C120.485 39.4154 119.13 40.0108 117.247 40.0108ZM116.108 35.9722C116.108 36.4555 116.298 36.8438 116.678 37.1371C117.075 37.4133 117.584 37.5513 118.205 37.5513C118.983 37.5513 119.612 37.3269 120.096 36.8782C120.579 36.4295 120.821 35.7996 120.821 34.9884V34.0046L120.251 34.1081L118.335 34.4188C117.61 34.5397 117.057 34.7123 116.678 34.9366C116.298 35.1437 116.108 35.4889 116.108 35.9722Z" fill="black"/>
<path id="Vector_9" d="M130.067 29.0081C130.464 28.2314 131 27.6274 131.673 27.1959C132.363 26.7644 133.175 26.5487 134.106 26.5487C135.418 26.5487 136.481 27.006 137.292 27.9207C138.12 28.8182 138.535 30.0695 138.535 31.6746V39.7519H135.194V32.5031C135.194 31.5538 134.987 30.8289 134.573 30.3284C134.176 29.8107 133.58 29.5518 132.786 29.5518C131.958 29.5518 131.292 29.8451 130.792 30.4319C130.309 31.0188 130.067 31.7868 130.067 32.736V39.7519H126.727V26.8076H130.067V29.0081Z" fill="black"/>
<path id="Vector_10" d="M140.219 33.2797C140.219 32.0544 140.486 30.9325 141.022 29.9142C141.574 28.8786 142.342 28.0588 143.327 27.4548C144.328 26.8507 145.475 26.5487 146.771 26.5487C148.428 26.5487 149.818 27.0233 150.94 27.9725C152.08 28.9218 152.796 30.1386 153.09 31.6228L149.775 31.9335C149.568 31.2087 149.205 30.6304 148.687 30.199C148.186 29.7675 147.548 29.5518 146.771 29.5518C145.769 29.5518 144.984 29.9142 144.414 30.6391C143.844 31.3467 143.559 32.2269 143.559 33.2797C143.559 34.3325 143.844 35.2214 144.414 35.9463C144.984 36.6538 145.769 37.0077 146.771 37.0077C147.548 37.0077 148.186 36.792 148.687 36.3605C149.205 35.929 149.568 35.3508 149.775 34.626L153.09 34.9366C152.796 36.4209 152.08 37.6376 150.94 38.5869C149.818 39.5362 148.428 40.0108 146.771 40.0108C145.475 40.0108 144.328 39.7087 143.327 39.1047C142.342 38.5007 141.574 37.6894 141.022 36.6712C140.486 35.6356 140.219 34.5051 140.219 33.2797Z" fill="black"/>
<path id="Vector_11" d="M158.205 26.8076V39.7519H154.865V26.8076H158.205ZM154.503 22.4065C154.503 21.8542 154.701 21.3795 155.098 20.9826C155.496 20.5856 155.978 20.3871 156.549 20.3871C157.101 20.3871 157.575 20.5856 157.973 20.9826C158.37 21.3795 158.568 21.8542 158.568 22.4065C158.568 22.976 158.37 23.4592 157.973 23.8562C157.575 24.2532 157.101 24.4517 156.549 24.4517C155.978 24.4517 155.496 24.2532 155.098 23.8562C154.701 23.4592 154.503 22.976 154.503 22.4065Z" fill="black"/>
<path id="Vector_12" d="M164.718 40.0108C163.406 40.0108 162.326 39.6656 161.481 38.9753C160.652 38.2676 160.238 37.3356 160.238 36.1792C160.238 35.0402 160.679 34.1427 161.559 33.4868C162.439 32.831 163.622 32.3909 165.107 32.1666L166.816 31.9076C167.35 31.8213 167.731 31.7178 167.955 31.597C168.18 31.4761 168.292 31.2518 168.292 30.9239C168.292 30.4234 168.085 30.0264 167.67 29.7329C167.273 29.4224 166.764 29.267 166.142 29.267C165.452 29.267 164.882 29.4396 164.433 29.7848C163.984 30.1299 163.734 30.6304 163.682 31.2863L160.497 31.0274C160.617 29.6812 161.188 28.6025 162.206 27.7913C163.242 26.9628 164.536 26.5487 166.09 26.5487C167.126 26.5487 168.058 26.7385 168.887 27.1182C169.733 27.4979 170.398 28.0675 170.882 28.8269C171.381 29.5863 171.632 30.501 171.632 31.5711V38.1727C171.632 38.7595 171.667 39.2859 171.736 39.7519H168.861C168.809 39.424 168.784 38.9321 168.784 38.2763V38.2244C167.955 39.4154 166.599 40.0108 164.718 40.0108ZM163.578 35.9722C163.578 36.4555 163.768 36.8438 164.149 37.1371C164.546 37.4133 165.055 37.5513 165.676 37.5513C166.453 37.5513 167.083 37.3269 167.567 36.8782C168.05 36.4295 168.292 35.7996 168.292 34.9884V34.0046L167.722 34.1081L165.806 34.4188C165.08 34.5397 164.528 34.7123 164.149 34.9366C163.768 35.1437 163.578 35.4889 163.578 35.9722Z" fill="black"/>
<path id="Vector_13" d="M177.538 21.6298V39.7519H174.196V21.6298H177.538Z" fill="black"/>
</g>
</g>
</g>
</g>
</g>
</g>
</g>
<defs>
<clipPath id="clip0_0_1">
<rect width="1425" height="4753.92" fill="white" transform="translate(-40 -19)"/>
</clipPath>
<clipPath id="clip1_0_1">
<rect width="178.55" height="40.8" fill="white" transform="translate(0 0.203125)"/>
</clipPath>
</defs>
</svg>
